<svg xmlns="http://www.w3.org/2000/svg" xml:space="preserve" width="2000" height="1500" data-id="lg_bhqXwYsej4mUpy3AuD" data-version="1" viewBox="0 0 2000 1500"><path fill="#46484d" stroke="transparent" d="M0 0h2000v1500H0z"/><g data-padding="20"><g transform="translate(-992.397 -738.75)scale(1.93867)"><rect width="544.455" height="559.35" x="354.525" y="88.079" fill="none" rx="0" ry="0" transform="translate(400.49 400.17)"/><path fill="#ff5e5e" d="M918.283 928.264q-16.92 0-33.48-1.33-16.55-1.33-27.55-9.06-11-7.74-11.24-26.35-.24-14.02 1.57-31.18 1.82-17.16 3.99-33.11 2.18-15.95 3.38-25.86l-36.01-28.04-34.32-123.27-29-33.35q.72-20.3 8.46-32.75 7.73-12.45 18.49-18.98 10.75-6.52 21.02-8.82 10.28-2.29 16.08-2.29 13.05-.25 24.29 2.41t20.9 9.43l32.15 203.03h10.88l36.98-105.87q-12.09-10.63-22.24-23.2t-19.34-32.39q7.98-18.85 23.57-30.94 15.59-12.08 34.32-18.61 18.73-6.52 36.14-8.7 19.81 16.2 29.36 40.73t10.52 52.08q-4.84 12.57-13.18 30.7t-19.21 38.31q-10.88 20.18-23.33 39.52-12.44 19.33-25.74 34.32l-32.87 18.37 23.45 118.67q-6.77 2.42-14.99 4.47-8.22 2.06-13.05 2.06m175.96 0q-10.15-4.84-21.15-18.01t-18.85-29.24q-7.86-16.08-9.07-29.85l21.51-29.97q4.84-1.94 11.12-2.66 6.29-.73 12.33-.73h7.97q-9.66-55.83-14.01-99.22-4.35-43.38-6.89-76.25t-6.65-57.04q4.59-7.01 15.83-14.26t27.19-12.21q15.96-4.95 33.84-4.95 22.96 0 38.91 9.66l-25.37 261.04 3.14.24 61.15 11.6 22.96-69.85 44.47 5.8q3.14 8.22 5.44 25.38t2.3 36.5q0 22.72-4.84 44.35-4.83 21.63-17.88 35.65-13.06 14.02-37.47 14.02-14.74 0-30.21-6.41-15.47-6.4-29.97-15.83-14.5-9.42-26.35-18.85-9.42 16.19-23.92 28.04-14.51 11.84-35.53 13.05"/></g><path fill="transparent" stroke="transparent" stroke-width="2.013" d="M451.588 187.5h1096.824v1125H451.588z"/></g></svg>